<svg xmlns="http://www.w3.org/2000/svg" viewBox="0 0 323.13 133.21"><defs><style>.cls-1{font-size:72px;font-family:Gotham-Bold, Gotham;font-weight:700;}.cls-1,.cls-2{fill:#fff;}</style></defs><g id="Layer_2" data-name="Layer 2"><g id="Layer_1-2" data-name="Layer 1"><text class="cls-1" transform="translate(0 71.53)"><tspan xml:space="preserve">   irtuoso</tspan></text><path class="cls-2" d="M63.64,19.78,38,32.4a5.4,5.4,0,0,1-6.7-1.86L12,1.41C10.54-.73,9.58-.4,9.83,2.16l6,61.84c.25,2.56.44,4.66.44,4.7s0,.07,0,.08,0,0,0,0,0,0,0,0l.14.07.21.12a7.4,7.4,0,0,1,2.7,3.73c.1.31.16.63.23.94l-8.3,30.9c-1.43,3-5.51,3.67-5.51,3.67,2.84,3.67-1.07,21.92-1.62,24s3,.23,5.82-.74,3.37.07,3.37.07c.72-9.5,8.5-20.55,8.5-20.55a6.81,6.81,0,0,1-3.17-4.72l7.75-28.85a6.71,6.71,0,0,1,.64-.57,11.73,11.73,0,0,1,3.67-2l0,0L33.31,71,65.25,21.62C66.64,19.49,65.91,18.67,63.64,19.78Z"/></g></g></svg>